M48
; DRILL file {KiCad 5.1.2-f72e74a~84~ubuntu18.04.1} date Ср 11 дек 2019 23:45:54
; FORMAT={-:-/ absolute / metric / decimal}
; #@! TF.CreationDate,2019-12-11T23:45:54+03:00
; #@! TF.GenerationSoftware,Kicad,Pcbnew,5.1.2-f72e74a~84~ubuntu18.04.1
FMAT,2
METRIC
T1C0.400
T2C1.000
%
G90
G05
T1
X2.275Y5.4
X3.475Y9.55
X4.29Y15.98
X4.45Y11.125
X4.5Y20.63
X5.925Y24.55
X5.95Y27.475
X6.1Y7.17
X7.0Y8.2
X7.4Y33.1
X7.4Y10.7
X8.2Y24.725
X8.475Y22.35
X8.48Y10.63
X9.47Y10.86
X10.29Y24.72
X10.53Y10.85
X10.82Y6.75
X10.87Y5.58
X11.55Y21.75
X11.55Y10.62
X11.86Y4.96
X12.37Y8.26
X13.86Y10.67
X14.01Y8.2
X14.39Y7.07
X15.03Y20.75
X15.05Y23.1
X15.3Y13.37
X15.42Y11.2
X16.23Y3.15
X7.525Y16.0
X8.338Y16.813
X8.338Y15.187
X9.151Y17.626
X9.151Y16.0
X9.187Y14.338
X10.0Y16.849
X10.0Y15.151
X10.018Y13.507
X10.071Y18.475
X10.831Y14.321
X10.849Y17.697
X10.849Y16.0
X11.679Y15.169
X11.697Y16.849
X12.546Y16.0
T2
X3.63Y1.4
X6.17Y1.4
X8.71Y1.4
X11.25Y1.4
X13.79Y1.4
X16.33Y1.4
X3.69Y34.7
X6.23Y34.7
X8.77Y34.7
X11.31Y34.7
X13.85Y34.7
X16.39Y34.7
X1.4Y32.04
X1.4Y29.5
X1.4Y26.96
X1.4Y24.42
X1.4Y21.88
X1.4Y19.34
X1.4Y16.8
X1.4Y14.26
X1.4Y11.72
X1.4Y9.18
X1.4Y6.64
X1.4Y4.1
X18.6Y32.04
X18.6Y29.5
X18.6Y26.96
X18.6Y24.42
X18.6Y21.88
X18.6Y19.34
X18.6Y16.8
X18.6Y14.26
X18.6Y11.72
X18.6Y9.18
X18.6Y6.64
X18.6Y4.1
T0
M30
