G04 #@! TF.GenerationSoftware,KiCad,Pcbnew,5.1.2-f72e74a~84~ubuntu18.04.1*
G04 #@! TF.CreationDate,2019-12-11T23:46:12+03:00*
G04 #@! TF.ProjectId,OM-128,4f4d2d31-3238-42e6-9b69-6361645f7063,rev?*
G04 #@! TF.SameCoordinates,PX5f5e100PY7270e00*
G04 #@! TF.FileFunction,Legend,Top*
G04 #@! TF.FilePolarity,Positive*
%FSLAX46Y46*%
G04 Gerber Fmt 4.6, Leading zero omitted, Abs format (unit mm)*
G04 Created by KiCad (PCBNEW 5.1.2-f72e74a~84~ubuntu18.04.1) date 2019-12-11 23:46:12*
%MOMM*%
%LPD*%
G04 APERTURE LIST*
%ADD10C,0.150000*%
%ADD11C,0.120000*%
G04 APERTURE END LIST*
D10*
X3040476Y33550000D02*
X2964285Y33597620D01*
X2850000Y33597620D01*
X2735714Y33550000D01*
X2659523Y33454762D01*
X2621428Y33359524D01*
X2583333Y33169048D01*
X2583333Y33026191D01*
X2621428Y32835715D01*
X2659523Y32740477D01*
X2735714Y32645239D01*
X2850000Y32597620D01*
X2926190Y32597620D01*
X3040476Y32645239D01*
X3078571Y32692858D01*
X3078571Y33026191D01*
X2926190Y33026191D01*
X3421428Y32597620D02*
X3421428Y33597620D01*
X3878571Y32597620D01*
X3878571Y33597620D01*
X4259523Y32597620D02*
X4259523Y33597620D01*
X4450000Y33597620D01*
X4564285Y33550000D01*
X4640476Y33454762D01*
X4678571Y33359524D01*
X4716666Y33169048D01*
X4716666Y33026191D01*
X4678571Y32835715D01*
X4640476Y32740477D01*
X4564285Y32645239D01*
X4450000Y32597620D01*
X4259523Y32597620D01*
X1850000Y34809524D02*
X1897619Y34885715D01*
X1897619Y35000000D01*
X1850000Y35114286D01*
X1754761Y35190477D01*
X1659523Y35228572D01*
X1469047Y35266667D01*
X1326190Y35266667D01*
X1135714Y35228572D01*
X1040476Y35190477D01*
X945238Y35114286D01*
X897619Y35000000D01*
X897619Y34923810D01*
X945238Y34809524D01*
X992857Y34771429D01*
X1326190Y34771429D01*
X1326190Y34923810D01*
X897619Y34428572D02*
X1897619Y34428572D01*
X897619Y33971429D01*
X1897619Y33971429D01*
X897619Y33590477D02*
X1897619Y33590477D01*
X1897619Y33400000D01*
X1850000Y33285715D01*
X1754761Y33209524D01*
X1659523Y33171429D01*
X1469047Y33133334D01*
X1326190Y33133334D01*
X1135714Y33171429D01*
X1040476Y33209524D01*
X945238Y33285715D01*
X897619Y33400000D01*
X897619Y33590477D01*
X3450000Y9809524D02*
X3497619Y9885715D01*
X3497619Y10000000D01*
X3450000Y10114286D01*
X3354761Y10190477D01*
X3259523Y10228572D01*
X3069047Y10266667D01*
X2926190Y10266667D01*
X2735714Y10228572D01*
X2640476Y10190477D01*
X2545238Y10114286D01*
X2497619Y10000000D01*
X2497619Y9923810D01*
X2545238Y9809524D01*
X2592857Y9771429D01*
X2926190Y9771429D01*
X2926190Y9923810D01*
X2497619Y9428572D02*
X3497619Y9428572D01*
X2497619Y8971429D01*
X3497619Y8971429D01*
X2497619Y8590477D02*
X3497619Y8590477D01*
X3497619Y8400000D01*
X3450000Y8285715D01*
X3354761Y8209524D01*
X3259523Y8171429D01*
X3069047Y8133334D01*
X2926190Y8133334D01*
X2735714Y8171429D01*
X2640476Y8209524D01*
X2545238Y8285715D01*
X2497619Y8400000D01*
X2497619Y8590477D01*
X2447619Y12414286D02*
X3447619Y12414286D01*
X3447619Y12200000D01*
X3400000Y12071429D01*
X3304761Y11985715D01*
X3209523Y11942858D01*
X3019047Y11900000D01*
X2876190Y11900000D01*
X2685714Y11942858D01*
X2590476Y11985715D01*
X2495238Y12071429D01*
X2447619Y12200000D01*
X2447619Y12414286D01*
X3447619Y11600000D02*
X3447619Y11000000D01*
X2447619Y11385715D01*
X2497619Y14864286D02*
X3497619Y14864286D01*
X3497619Y14650000D01*
X3450000Y14521429D01*
X3354761Y14435715D01*
X3259523Y14392858D01*
X3069047Y14350000D01*
X2926190Y14350000D01*
X2735714Y14392858D01*
X2640476Y14435715D01*
X2545238Y14521429D01*
X2497619Y14650000D01*
X2497619Y14864286D01*
X3497619Y13578572D02*
X3497619Y13750000D01*
X3450000Y13835715D01*
X3402380Y13878572D01*
X3259523Y13964286D01*
X3069047Y14007143D01*
X2688095Y14007143D01*
X2592857Y13964286D01*
X2545238Y13921429D01*
X2497619Y13835715D01*
X2497619Y13664286D01*
X2545238Y13578572D01*
X2592857Y13535715D01*
X2688095Y13492858D01*
X2926190Y13492858D01*
X3021428Y13535715D01*
X3069047Y13578572D01*
X3116666Y13664286D01*
X3116666Y13835715D01*
X3069047Y13921429D01*
X3021428Y13964286D01*
X2926190Y14007143D01*
X2447619Y17464286D02*
X3447619Y17464286D01*
X3447619Y17250000D01*
X3400000Y17121429D01*
X3304761Y17035715D01*
X3209523Y16992858D01*
X3019047Y16950000D01*
X2876190Y16950000D01*
X2685714Y16992858D01*
X2590476Y17035715D01*
X2495238Y17121429D01*
X2447619Y17250000D01*
X2447619Y17464286D01*
X3447619Y16135715D02*
X3447619Y16564286D01*
X2971428Y16607143D01*
X3019047Y16564286D01*
X3066666Y16478572D01*
X3066666Y16264286D01*
X3019047Y16178572D01*
X2971428Y16135715D01*
X2876190Y16092858D01*
X2638095Y16092858D01*
X2542857Y16135715D01*
X2495238Y16178572D01*
X2447619Y16264286D01*
X2447619Y16478572D01*
X2495238Y16564286D01*
X2542857Y16607143D01*
X2497619Y19964286D02*
X3497619Y19964286D01*
X3497619Y19750000D01*
X3450000Y19621429D01*
X3354761Y19535715D01*
X3259523Y19492858D01*
X3069047Y19450000D01*
X2926190Y19450000D01*
X2735714Y19492858D01*
X2640476Y19535715D01*
X2545238Y19621429D01*
X2497619Y19750000D01*
X2497619Y19964286D01*
X3164285Y18678572D02*
X2497619Y18678572D01*
X3545238Y18892858D02*
X2830952Y19107143D01*
X2830952Y18550000D01*
X2497619Y22464286D02*
X3497619Y22464286D01*
X3497619Y22250000D01*
X3450000Y22121429D01*
X3354761Y22035715D01*
X3259523Y21992858D01*
X3069047Y21950000D01*
X2926190Y21950000D01*
X2735714Y21992858D01*
X2640476Y22035715D01*
X2545238Y22121429D01*
X2497619Y22250000D01*
X2497619Y22464286D01*
X3497619Y21650000D02*
X3497619Y21092858D01*
X3116666Y21392858D01*
X3116666Y21264286D01*
X3069047Y21178572D01*
X3021428Y21135715D01*
X2926190Y21092858D01*
X2688095Y21092858D01*
X2592857Y21135715D01*
X2545238Y21178572D01*
X2497619Y21264286D01*
X2497619Y21521429D01*
X2545238Y21607143D01*
X2592857Y21650000D01*
X5133333Y33597620D02*
X5400000Y32597620D01*
X5666666Y33597620D01*
X6390476Y32692858D02*
X6352380Y32645239D01*
X6238095Y32597620D01*
X6161904Y32597620D01*
X6047619Y32645239D01*
X5971428Y32740477D01*
X5933333Y32835715D01*
X5895238Y33026191D01*
X5895238Y33169048D01*
X5933333Y33359524D01*
X5971428Y33454762D01*
X6047619Y33550000D01*
X6161904Y33597620D01*
X6238095Y33597620D01*
X6352380Y33550000D01*
X6390476Y33502381D01*
X7190476Y32692858D02*
X7152380Y32645239D01*
X7038095Y32597620D01*
X6961904Y32597620D01*
X6847619Y32645239D01*
X6771428Y32740477D01*
X6733333Y32835715D01*
X6695238Y33026191D01*
X6695238Y33169048D01*
X6733333Y33359524D01*
X6771428Y33454762D01*
X6847619Y33550000D01*
X6961904Y33597620D01*
X7038095Y33597620D01*
X7152380Y33550000D01*
X7190476Y33502381D01*
X8311904Y32597620D02*
X8045238Y33073810D01*
X7854761Y32597620D02*
X7854761Y33597620D01*
X8159523Y33597620D01*
X8235714Y33550000D01*
X8273809Y33502381D01*
X8311904Y33407143D01*
X8311904Y33264286D01*
X8273809Y33169048D01*
X8235714Y33121429D01*
X8159523Y33073810D01*
X7854761Y33073810D01*
X8616666Y32645239D02*
X8730952Y32597620D01*
X8921428Y32597620D01*
X8997619Y32645239D01*
X9035714Y32692858D01*
X9073809Y32788096D01*
X9073809Y32883334D01*
X9035714Y32978572D01*
X8997619Y33026191D01*
X8921428Y33073810D01*
X8769047Y33121429D01*
X8692857Y33169048D01*
X8654761Y33216667D01*
X8616666Y33311905D01*
X8616666Y33407143D01*
X8654761Y33502381D01*
X8692857Y33550000D01*
X8769047Y33597620D01*
X8959523Y33597620D01*
X9073809Y33550000D01*
X9302380Y33597620D02*
X9759523Y33597620D01*
X9530952Y32597620D02*
X9530952Y33597620D01*
X10400000Y32645239D02*
X10500000Y32597620D01*
X10666666Y32597620D01*
X10733333Y32645239D01*
X10766666Y32692858D01*
X10800000Y32788096D01*
X10800000Y32883334D01*
X10766666Y32978572D01*
X10733333Y33026191D01*
X10666666Y33073810D01*
X10533333Y33121429D01*
X10466666Y33169048D01*
X10433333Y33216667D01*
X10400000Y33311905D01*
X10400000Y33407143D01*
X10433333Y33502381D01*
X10466666Y33550000D01*
X10533333Y33597620D01*
X10700000Y33597620D01*
X10800000Y33550000D01*
X11500000Y32692858D02*
X11466666Y32645239D01*
X11366666Y32597620D01*
X11300000Y32597620D01*
X11200000Y32645239D01*
X11133333Y32740477D01*
X11100000Y32835715D01*
X11066666Y33026191D01*
X11066666Y33169048D01*
X11100000Y33359524D01*
X11133333Y33454762D01*
X11200000Y33550000D01*
X11300000Y33597620D01*
X11366666Y33597620D01*
X11466666Y33550000D01*
X11500000Y33502381D01*
X11800000Y32597620D02*
X11800000Y33597620D01*
X12200000Y32597620D02*
X11900000Y33169048D01*
X12200000Y33597620D02*
X11800000Y33026191D01*
X15425000Y32622620D02*
X15425000Y33622620D01*
X15658333Y32908334D01*
X15891666Y33622620D01*
X15891666Y32622620D01*
X16358333Y33622620D02*
X16491666Y33622620D01*
X16558333Y33575000D01*
X16625000Y33479762D01*
X16658333Y33289286D01*
X16658333Y32955953D01*
X16625000Y32765477D01*
X16558333Y32670239D01*
X16491666Y32622620D01*
X16358333Y32622620D01*
X16291666Y32670239D01*
X16225000Y32765477D01*
X16191666Y32955953D01*
X16191666Y33289286D01*
X16225000Y33479762D01*
X16291666Y33575000D01*
X16358333Y33622620D01*
X16925000Y32670239D02*
X17025000Y32622620D01*
X17191666Y32622620D01*
X17258333Y32670239D01*
X17291666Y32717858D01*
X17325000Y32813096D01*
X17325000Y32908334D01*
X17291666Y33003572D01*
X17258333Y33051191D01*
X17191666Y33098810D01*
X17058333Y33146429D01*
X16991666Y33194048D01*
X16958333Y33241667D01*
X16925000Y33336905D01*
X16925000Y33432143D01*
X16958333Y33527381D01*
X16991666Y33575000D01*
X17058333Y33622620D01*
X17225000Y33622620D01*
X17325000Y33575000D01*
X17625000Y32622620D02*
X17625000Y33622620D01*
X12725000Y32622620D02*
X12725000Y33622620D01*
X12958333Y32908334D01*
X13191666Y33622620D01*
X13191666Y32622620D01*
X13525000Y32622620D02*
X13525000Y33622620D01*
X13825000Y32670239D02*
X13925000Y32622620D01*
X14091666Y32622620D01*
X14158333Y32670239D01*
X14191666Y32717858D01*
X14225000Y32813096D01*
X14225000Y32908334D01*
X14191666Y33003572D01*
X14158333Y33051191D01*
X14091666Y33098810D01*
X13958333Y33146429D01*
X13891666Y33194048D01*
X13858333Y33241667D01*
X13825000Y33336905D01*
X13825000Y33432143D01*
X13858333Y33527381D01*
X13891666Y33575000D01*
X13958333Y33622620D01*
X14125000Y33622620D01*
X14225000Y33575000D01*
X14658333Y33622620D02*
X14791666Y33622620D01*
X14858333Y33575000D01*
X14925000Y33479762D01*
X14958333Y33289286D01*
X14958333Y32955953D01*
X14925000Y32765477D01*
X14858333Y32670239D01*
X14791666Y32622620D01*
X14658333Y32622620D01*
X14591666Y32670239D01*
X14525000Y32765477D01*
X14491666Y32955953D01*
X14491666Y33289286D01*
X14525000Y33479762D01*
X14591666Y33575000D01*
X14658333Y33622620D01*
X18147619Y34702381D02*
X18623809Y34969048D01*
X18147619Y35159524D02*
X19147619Y35159524D01*
X19147619Y34854762D01*
X19100000Y34778572D01*
X19052380Y34740477D01*
X18957142Y34702381D01*
X18814285Y34702381D01*
X18719047Y34740477D01*
X18671428Y34778572D01*
X18623809Y34854762D01*
X18623809Y35159524D01*
X18433333Y34397620D02*
X18433333Y34016667D01*
X18147619Y34473810D02*
X19147619Y34207143D01*
X18147619Y33940477D01*
X19147619Y33750000D02*
X18147619Y33559524D01*
X18861904Y33407143D01*
X18147619Y33254762D01*
X19147619Y33064286D01*
X17600000Y30109524D02*
X17647619Y30185715D01*
X17647619Y30300000D01*
X17600000Y30414286D01*
X17504761Y30490477D01*
X17409523Y30528572D01*
X17219047Y30566667D01*
X17076190Y30566667D01*
X16885714Y30528572D01*
X16790476Y30490477D01*
X16695238Y30414286D01*
X16647619Y30300000D01*
X16647619Y30223810D01*
X16695238Y30109524D01*
X16742857Y30071429D01*
X17076190Y30071429D01*
X17076190Y30223810D01*
X16647619Y29728572D02*
X17647619Y29728572D01*
X16647619Y29271429D01*
X17647619Y29271429D01*
X16647619Y28890477D02*
X17647619Y28890477D01*
X17647619Y28700000D01*
X17600000Y28585715D01*
X17504761Y28509524D01*
X17409523Y28471429D01*
X17219047Y28433334D01*
X17076190Y28433334D01*
X16885714Y28471429D01*
X16790476Y28509524D01*
X16695238Y28585715D01*
X16647619Y28700000D01*
X16647619Y28890477D01*
X17600000Y27509524D02*
X17647619Y27585715D01*
X17647619Y27700000D01*
X17600000Y27814286D01*
X17504761Y27890477D01*
X17409523Y27928572D01*
X17219047Y27966667D01*
X17076190Y27966667D01*
X16885714Y27928572D01*
X16790476Y27890477D01*
X16695238Y27814286D01*
X16647619Y27700000D01*
X16647619Y27623810D01*
X16695238Y27509524D01*
X16742857Y27471429D01*
X17076190Y27471429D01*
X17076190Y27623810D01*
X16647619Y27128572D02*
X17647619Y27128572D01*
X16647619Y26671429D01*
X17647619Y26671429D01*
X16647619Y26290477D02*
X17647619Y26290477D01*
X17647619Y26100000D01*
X17600000Y25985715D01*
X17504761Y25909524D01*
X17409523Y25871429D01*
X17219047Y25833334D01*
X17076190Y25833334D01*
X16885714Y25871429D01*
X16790476Y25909524D01*
X16695238Y25985715D01*
X16647619Y26100000D01*
X16647619Y26290477D01*
X17647619Y25416667D02*
X16647619Y25150000D01*
X17647619Y24883334D01*
X16742857Y24159524D02*
X16695238Y24197620D01*
X16647619Y24311905D01*
X16647619Y24388096D01*
X16695238Y24502381D01*
X16790476Y24578572D01*
X16885714Y24616667D01*
X17076190Y24654762D01*
X17219047Y24654762D01*
X17409523Y24616667D01*
X17504761Y24578572D01*
X17600000Y24502381D01*
X17647619Y24388096D01*
X17647619Y24311905D01*
X17600000Y24197620D01*
X17552380Y24159524D01*
X16742857Y23359524D02*
X16695238Y23397620D01*
X16647619Y23511905D01*
X16647619Y23588096D01*
X16695238Y23702381D01*
X16790476Y23778572D01*
X16885714Y23816667D01*
X17076190Y23854762D01*
X17219047Y23854762D01*
X17409523Y23816667D01*
X17504761Y23778572D01*
X17600000Y23702381D01*
X17647619Y23588096D01*
X17647619Y23511905D01*
X17600000Y23397620D01*
X17552380Y23359524D01*
X16933333Y14942858D02*
X16933333Y14514286D01*
X16647619Y15028572D02*
X17647619Y14728572D01*
X16647619Y14428572D01*
X17647619Y14214286D02*
X17647619Y13657143D01*
X17266666Y13957143D01*
X17266666Y13828572D01*
X17219047Y13742858D01*
X17171428Y13700000D01*
X17076190Y13657143D01*
X16838095Y13657143D01*
X16742857Y13700000D01*
X16695238Y13742858D01*
X16647619Y13828572D01*
X16647619Y14085715D01*
X16695238Y14171429D01*
X16742857Y14214286D01*
X16933333Y12392858D02*
X16933333Y11964286D01*
X16647619Y12478572D02*
X17647619Y12178572D01*
X16647619Y11878572D01*
X17314285Y11192858D02*
X16647619Y11192858D01*
X17695238Y11407143D02*
X16980952Y11621429D01*
X16980952Y11064286D01*
X16933333Y9892858D02*
X16933333Y9464286D01*
X16647619Y9978572D02*
X17647619Y9678572D01*
X16647619Y9378572D01*
X17647619Y8650000D02*
X17647619Y9078572D01*
X17171428Y9121429D01*
X17219047Y9078572D01*
X17266666Y8992858D01*
X17266666Y8778572D01*
X17219047Y8692858D01*
X17171428Y8650000D01*
X17076190Y8607143D01*
X16838095Y8607143D01*
X16742857Y8650000D01*
X16695238Y8692858D01*
X16647619Y8778572D01*
X16647619Y8992858D01*
X16695238Y9078572D01*
X16742857Y9121429D01*
X16933333Y7292858D02*
X16933333Y6864286D01*
X16647619Y7378572D02*
X17647619Y7078572D01*
X16647619Y6778572D01*
X17647619Y6092858D02*
X17647619Y6264286D01*
X17600000Y6350000D01*
X17552380Y6392858D01*
X17409523Y6478572D01*
X17219047Y6521429D01*
X16838095Y6521429D01*
X16742857Y6478572D01*
X16695238Y6435715D01*
X16647619Y6350000D01*
X16647619Y6178572D01*
X16695238Y6092858D01*
X16742857Y6050000D01*
X16838095Y6007143D01*
X17076190Y6007143D01*
X17171428Y6050000D01*
X17219047Y6092858D01*
X17266666Y6178572D01*
X17266666Y6350000D01*
X17219047Y6435715D01*
X17171428Y6478572D01*
X17076190Y6521429D01*
X18383333Y2942858D02*
X18383333Y2514286D01*
X18097619Y3028572D02*
X19097619Y2728572D01*
X18097619Y2428572D01*
X19097619Y2214286D02*
X19097619Y1614286D01*
X18097619Y2000000D01*
X2545238Y7552381D02*
X2497619Y7438096D01*
X2497619Y7247620D01*
X2545238Y7171429D01*
X2592857Y7133334D01*
X2688095Y7095239D01*
X2783333Y7095239D01*
X2878571Y7133334D01*
X2926190Y7171429D01*
X2973809Y7247620D01*
X3021428Y7400000D01*
X3069047Y7476191D01*
X3116666Y7514286D01*
X3211904Y7552381D01*
X3307142Y7552381D01*
X3402380Y7514286D01*
X3450000Y7476191D01*
X3497619Y7400000D01*
X3497619Y7209524D01*
X3450000Y7095239D01*
X2592857Y6295239D02*
X2545238Y6333334D01*
X2497619Y6447620D01*
X2497619Y6523810D01*
X2545238Y6638096D01*
X2640476Y6714286D01*
X2735714Y6752381D01*
X2926190Y6790477D01*
X3069047Y6790477D01*
X3259523Y6752381D01*
X3354761Y6714286D01*
X3450000Y6638096D01*
X3497619Y6523810D01*
X3497619Y6447620D01*
X3450000Y6333334D01*
X3402380Y6295239D01*
X2497619Y5571429D02*
X2497619Y5952381D01*
X3497619Y5952381D01*
X945238Y2921429D02*
X897619Y2807143D01*
X897619Y2616667D01*
X945238Y2540477D01*
X992857Y2502381D01*
X1088095Y2464286D01*
X1183333Y2464286D01*
X1278571Y2502381D01*
X1326190Y2540477D01*
X1373809Y2616667D01*
X1421428Y2769048D01*
X1469047Y2845239D01*
X1516666Y2883334D01*
X1611904Y2921429D01*
X1707142Y2921429D01*
X1802380Y2883334D01*
X1850000Y2845239D01*
X1897619Y2769048D01*
X1897619Y2578572D01*
X1850000Y2464286D01*
X897619Y2121429D02*
X1897619Y2121429D01*
X1897619Y1930953D01*
X1850000Y1816667D01*
X1754761Y1740477D01*
X1659523Y1702381D01*
X1469047Y1664286D01*
X1326190Y1664286D01*
X1135714Y1702381D01*
X1040476Y1740477D01*
X945238Y1816667D01*
X897619Y1930953D01*
X897619Y2121429D01*
X1183333Y1359524D02*
X1183333Y978572D01*
X897619Y1435715D02*
X1897619Y1169048D01*
X897619Y902381D01*
X16250000Y2542858D02*
X16207142Y2495239D01*
X16078571Y2447620D01*
X15992857Y2447620D01*
X15864285Y2495239D01*
X15778571Y2590477D01*
X15735714Y2685715D01*
X15692857Y2876191D01*
X15692857Y3019048D01*
X15735714Y3209524D01*
X15778571Y3304762D01*
X15864285Y3400000D01*
X15992857Y3447620D01*
X16078571Y3447620D01*
X16207142Y3400000D01*
X16250000Y3352381D01*
X16550000Y3447620D02*
X17150000Y3447620D01*
X16764285Y2447620D01*
X13650000Y2542858D02*
X13607142Y2495239D01*
X13478571Y2447620D01*
X13392857Y2447620D01*
X13264285Y2495239D01*
X13178571Y2590477D01*
X13135714Y2685715D01*
X13092857Y2876191D01*
X13092857Y3019048D01*
X13135714Y3209524D01*
X13178571Y3304762D01*
X13264285Y3400000D01*
X13392857Y3447620D01*
X13478571Y3447620D01*
X13607142Y3400000D01*
X13650000Y3352381D01*
X14421428Y3447620D02*
X14250000Y3447620D01*
X14164285Y3400000D01*
X14121428Y3352381D01*
X14035714Y3209524D01*
X13992857Y3019048D01*
X13992857Y2638096D01*
X14035714Y2542858D01*
X14078571Y2495239D01*
X14164285Y2447620D01*
X14335714Y2447620D01*
X14421428Y2495239D01*
X14464285Y2542858D01*
X14507142Y2638096D01*
X14507142Y2876191D01*
X14464285Y2971429D01*
X14421428Y3019048D01*
X14335714Y3066667D01*
X14164285Y3066667D01*
X14078571Y3019048D01*
X14035714Y2971429D01*
X13992857Y2876191D01*
X11050000Y2542858D02*
X11007142Y2495239D01*
X10878571Y2447620D01*
X10792857Y2447620D01*
X10664285Y2495239D01*
X10578571Y2590477D01*
X10535714Y2685715D01*
X10492857Y2876191D01*
X10492857Y3019048D01*
X10535714Y3209524D01*
X10578571Y3304762D01*
X10664285Y3400000D01*
X10792857Y3447620D01*
X10878571Y3447620D01*
X11007142Y3400000D01*
X11050000Y3352381D01*
X11864285Y3447620D02*
X11435714Y3447620D01*
X11392857Y2971429D01*
X11435714Y3019048D01*
X11521428Y3066667D01*
X11735714Y3066667D01*
X11821428Y3019048D01*
X11864285Y2971429D01*
X11907142Y2876191D01*
X11907142Y2638096D01*
X11864285Y2542858D01*
X11821428Y2495239D01*
X11735714Y2447620D01*
X11521428Y2447620D01*
X11435714Y2495239D01*
X11392857Y2542858D01*
X8550000Y2542858D02*
X8507142Y2495239D01*
X8378571Y2447620D01*
X8292857Y2447620D01*
X8164285Y2495239D01*
X8078571Y2590477D01*
X8035714Y2685715D01*
X7992857Y2876191D01*
X7992857Y3019048D01*
X8035714Y3209524D01*
X8078571Y3304762D01*
X8164285Y3400000D01*
X8292857Y3447620D01*
X8378571Y3447620D01*
X8507142Y3400000D01*
X8550000Y3352381D01*
X9321428Y3114286D02*
X9321428Y2447620D01*
X9107142Y3495239D02*
X8892857Y2780953D01*
X9450000Y2780953D01*
X6000000Y2542858D02*
X5957142Y2495239D01*
X5828571Y2447620D01*
X5742857Y2447620D01*
X5614285Y2495239D01*
X5528571Y2590477D01*
X5485714Y2685715D01*
X5442857Y2876191D01*
X5442857Y3019048D01*
X5485714Y3209524D01*
X5528571Y3304762D01*
X5614285Y3400000D01*
X5742857Y3447620D01*
X5828571Y3447620D01*
X5957142Y3400000D01*
X6000000Y3352381D01*
X6300000Y3447620D02*
X6857142Y3447620D01*
X6557142Y3066667D01*
X6685714Y3066667D01*
X6771428Y3019048D01*
X6814285Y2971429D01*
X6857142Y2876191D01*
X6857142Y2638096D01*
X6814285Y2542858D01*
X6771428Y2495239D01*
X6685714Y2447620D01*
X6428571Y2447620D01*
X6342857Y2495239D01*
X6300000Y2542858D01*
X3450000Y2542858D02*
X3407142Y2495239D01*
X3278571Y2447620D01*
X3192857Y2447620D01*
X3064285Y2495239D01*
X2978571Y2590477D01*
X2935714Y2685715D01*
X2892857Y2876191D01*
X2892857Y3019048D01*
X2935714Y3209524D01*
X2978571Y3304762D01*
X3064285Y3400000D01*
X3192857Y3447620D01*
X3278571Y3447620D01*
X3407142Y3400000D01*
X3450000Y3352381D01*
X3792857Y3352381D02*
X3835714Y3400000D01*
X3921428Y3447620D01*
X4135714Y3447620D01*
X4221428Y3400000D01*
X4264285Y3352381D01*
X4307142Y3257143D01*
X4307142Y3161905D01*
X4264285Y3019048D01*
X3750000Y2447620D01*
X4307142Y2447620D01*
X3447619Y27759524D02*
X3447619Y27302381D01*
X2447619Y27530953D02*
X3447619Y27530953D01*
X3447619Y27111905D02*
X2447619Y26578572D01*
X3447619Y26578572D02*
X2447619Y27111905D01*
X2447619Y26273810D02*
X3447619Y26273810D01*
X3447619Y26083334D01*
X3400000Y25969048D01*
X3304761Y25892858D01*
X3209523Y25854762D01*
X3019047Y25816667D01*
X2876190Y25816667D01*
X2685714Y25854762D01*
X2590476Y25892858D01*
X2495238Y25969048D01*
X2447619Y26083334D01*
X2447619Y26273810D01*
X2447619Y29933334D02*
X2923809Y30200000D01*
X2447619Y30390477D02*
X3447619Y30390477D01*
X3447619Y30085715D01*
X3400000Y30009524D01*
X3352380Y29971429D01*
X3257142Y29933334D01*
X3114285Y29933334D01*
X3019047Y29971429D01*
X2971428Y30009524D01*
X2923809Y30085715D01*
X2923809Y30390477D01*
X3447619Y29666667D02*
X2447619Y29133334D01*
X3447619Y29133334D02*
X2447619Y29666667D01*
X2447619Y28828572D02*
X3447619Y28828572D01*
X3447619Y28638096D01*
X3400000Y28523810D01*
X3304761Y28447620D01*
X3209523Y28409524D01*
X3019047Y28371429D01*
X2876190Y28371429D01*
X2685714Y28409524D01*
X2590476Y28447620D01*
X2495238Y28523810D01*
X2447619Y28638096D01*
X2447619Y28828572D01*
X2497619Y25064286D02*
X3497619Y25064286D01*
X3497619Y24850000D01*
X3450000Y24721429D01*
X3354761Y24635715D01*
X3259523Y24592858D01*
X3069047Y24550000D01*
X2926190Y24550000D01*
X2735714Y24592858D01*
X2640476Y24635715D01*
X2545238Y24721429D01*
X2497619Y24850000D01*
X2497619Y25064286D01*
X3402380Y24207143D02*
X3450000Y24164286D01*
X3497619Y24078572D01*
X3497619Y23864286D01*
X3450000Y23778572D01*
X3402380Y23735715D01*
X3307142Y23692858D01*
X3211904Y23692858D01*
X3069047Y23735715D01*
X2497619Y24250000D01*
X2497619Y23692858D01*
X5847619Y26472620D02*
X5580952Y26948810D01*
X5390476Y26472620D02*
X5390476Y27472620D01*
X5695238Y27472620D01*
X5771428Y27425000D01*
X5809523Y27377381D01*
X5847619Y27282143D01*
X5847619Y27139286D01*
X5809523Y27044048D01*
X5771428Y26996429D01*
X5695238Y26948810D01*
X5390476Y26948810D01*
X6152380Y26758334D02*
X6533333Y26758334D01*
X6076190Y26472620D02*
X6342857Y27472620D01*
X6609523Y26472620D01*
X6800000Y27472620D02*
X6990476Y26472620D01*
X7142857Y27186905D01*
X7295238Y26472620D01*
X7485714Y27472620D01*
X5333333Y24822620D02*
X5333333Y25822620D01*
X5638095Y25822620D01*
X5714285Y25775000D01*
X5752380Y25727381D01*
X5790476Y25632143D01*
X5790476Y25489286D01*
X5752380Y25394048D01*
X5714285Y25346429D01*
X5638095Y25298810D01*
X5333333Y25298810D01*
X6057142Y25822620D02*
X6247619Y24822620D01*
X6400000Y25536905D01*
X6552380Y24822620D01*
X6742857Y25822620D01*
X7504761Y24822620D02*
X7238095Y25298810D01*
X7047619Y24822620D02*
X7047619Y25822620D01*
X7352380Y25822620D01*
X7428571Y25775000D01*
X7466666Y25727381D01*
X7504761Y25632143D01*
X7504761Y25489286D01*
X7466666Y25394048D01*
X7428571Y25346429D01*
X7352380Y25298810D01*
X7047619Y25298810D01*
X16933333Y17442858D02*
X16933333Y17014286D01*
X16647619Y17528572D02*
X17647619Y17228572D01*
X16647619Y16928572D01*
X17552380Y16671429D02*
X17600000Y16628572D01*
X17647619Y16542858D01*
X17647619Y16328572D01*
X17600000Y16242858D01*
X17552380Y16200000D01*
X17457142Y16157143D01*
X17361904Y16157143D01*
X17219047Y16200000D01*
X16647619Y16714286D01*
X16647619Y16157143D01*
X16933333Y20042858D02*
X16933333Y19614286D01*
X16647619Y20128572D02*
X17647619Y19828572D01*
X16647619Y19528572D01*
X16647619Y18757143D02*
X16647619Y19271429D01*
X16647619Y19014286D02*
X17647619Y19014286D01*
X17504761Y19100000D01*
X17409523Y19185715D01*
X17361904Y19271429D01*
X16833333Y22542858D02*
X16833333Y22114286D01*
X16547619Y22628572D02*
X17547619Y22328572D01*
X16547619Y22028572D01*
X17547619Y21557143D02*
X17547619Y21471429D01*
X17500000Y21385715D01*
X17452380Y21342858D01*
X17357142Y21300000D01*
X17166666Y21257143D01*
X16928571Y21257143D01*
X16738095Y21300000D01*
X16642857Y21342858D01*
X16595238Y21385715D01*
X16547619Y21471429D01*
X16547619Y21557143D01*
X16595238Y21642858D01*
X16642857Y21685715D01*
X16738095Y21728572D01*
X16928571Y21771429D01*
X17166666Y21771429D01*
X17357142Y21728572D01*
X17452380Y21685715D01*
X17500000Y21642858D01*
X17547619Y21557143D01*
D11*
X14592659Y16512652D02*
X15105311Y16000000D01*
X15105311Y16000000D02*
X14592659Y15487348D01*
X5407341Y15487348D02*
X4894689Y16000000D01*
X4894689Y16000000D02*
X5407341Y16512652D01*
X9487348Y11407341D02*
X10000000Y10894689D01*
X10000000Y10894689D02*
X10512652Y11407341D01*
X10512652Y20592659D02*
X10000000Y21105311D01*
X16437500Y4900000D02*
X16437500Y4100000D01*
X16037500Y4500000D02*
X16437500Y4900000D01*
X16037500Y4500000D02*
X16437500Y4100000D01*
X3550000Y4100000D02*
X3550000Y4900000D01*
X3950000Y4500000D02*
X3550000Y4100000D01*
X3950000Y4500000D02*
X3550000Y4900000D01*
X14400000Y31000000D02*
X14400000Y30000000D01*
X13400000Y30500000D02*
X14400000Y31000000D01*
X13400000Y30500000D02*
X14400000Y30000000D01*
X14840000Y28100000D02*
X14840000Y28900000D01*
X15240000Y28500000D02*
X14840000Y28100000D01*
X15240000Y28500000D02*
X14840000Y28900000D01*
X14830000Y25930000D02*
X14830000Y26730000D01*
X15230000Y26330000D02*
X14830000Y25930000D01*
X15230000Y26330000D02*
X14830000Y26730000D01*
X14840000Y23760000D02*
X14840000Y24560000D01*
X14840000Y24560000D02*
X15240000Y24160000D01*
X14840000Y23760000D02*
X15240000Y24160000D01*
X14840000Y21680000D02*
X14840000Y22480000D01*
X14840000Y21680000D02*
X15240000Y22080000D01*
X15240000Y22080000D02*
X14840000Y22480000D01*
X14662779Y12760000D02*
X14337221Y12760000D01*
X14662779Y11740000D02*
X14337221Y11740000D01*
X9990000Y29474721D02*
X9990000Y29800279D01*
X11010000Y29474721D02*
X11010000Y29800279D01*
X5710000Y29587221D02*
X5710000Y29912779D01*
X4690000Y29587221D02*
X4690000Y29912779D01*
X5662779Y11740000D02*
X5337221Y11740000D01*
X5662779Y12760000D02*
X5337221Y12760000D01*
X14899721Y18890000D02*
X15225279Y18890000D01*
X14899721Y19910000D02*
X15225279Y19910000D01*
X6740000Y22649721D02*
X6740000Y22975279D01*
X7760000Y22649721D02*
X7760000Y22975279D01*
X14922779Y9050000D02*
X14597221Y9050000D01*
X14922779Y10070000D02*
X14597221Y10070000D01*
X5191422Y10270000D02*
X5708578Y10270000D01*
X5191422Y8850000D02*
X5708578Y8850000D01*
X9890000Y27340000D02*
G75*
G02X10590000Y26640000I0J-700000D01*
G01*
X10590000Y26040000D02*
G75*
G02X9890000Y25340000I-700000J0D01*
G01*
X8490000Y25340000D02*
G75*
G02X7790000Y26040000I0J700000D01*
G01*
X7790000Y26640000D02*
G75*
G02X8490000Y27340000I700000J0D01*
G01*
X7790000Y26040000D02*
X7790000Y26640000D01*
X9890000Y25340000D02*
X8490000Y25340000D01*
X10590000Y26640000D02*
X10590000Y26040000D01*
X8490000Y27340000D02*
X9890000Y27340000D01*
X15090000Y6687221D02*
X15090000Y7012779D01*
X16110000Y6687221D02*
X16110000Y7012779D01*
X3940000Y6699721D02*
X3940000Y7025279D01*
X4960000Y6699721D02*
X4960000Y7025279D01*
X10150279Y24150000D02*
X9824721Y24150000D01*
X10150279Y23130000D02*
X9824721Y23130000D01*
X11750279Y10070000D02*
X11424721Y10070000D01*
X11750279Y9050000D02*
X11424721Y9050000D01*
X8662779Y9060000D02*
X8337221Y9060000D01*
X8662779Y10080000D02*
X8337221Y10080000D01*
X11920675Y21282878D02*
X11567122Y20929325D01*
X13532878Y19670675D02*
X13179325Y19317122D01*
X13060000Y3650000D02*
X6940000Y3650000D01*
X6940000Y3650000D02*
X6940000Y7350000D01*
X6940000Y7350000D02*
X13060000Y7350000D01*
X13060000Y7350000D02*
X13060000Y3650000D01*
D10*
X12115238Y28521429D02*
X12258095Y28473810D01*
X12305714Y28426191D01*
X12353333Y28330953D01*
X12353333Y28188096D01*
X12305714Y28092858D01*
X12258095Y28045239D01*
X12162857Y27997620D01*
X11781904Y27997620D01*
X11781904Y28997620D01*
X12115238Y28997620D01*
X12210476Y28950000D01*
X12258095Y28902381D01*
X12305714Y28807143D01*
X12305714Y28711905D01*
X12258095Y28616667D01*
X12210476Y28569048D01*
X12115238Y28521429D01*
X11781904Y28521429D01*
X12686666Y28997620D02*
X13305714Y28997620D01*
X12972380Y28616667D01*
X13115238Y28616667D01*
X13210476Y28569048D01*
X13258095Y28521429D01*
X13305714Y28426191D01*
X13305714Y28188096D01*
X13258095Y28092858D01*
X13210476Y28045239D01*
X13115238Y27997620D01*
X12829523Y27997620D01*
X12734285Y28045239D01*
X12686666Y28092858D01*
X12115238Y26351429D02*
X12258095Y26303810D01*
X12305714Y26256191D01*
X12353333Y26160953D01*
X12353333Y26018096D01*
X12305714Y25922858D01*
X12258095Y25875239D01*
X12162857Y25827620D01*
X11781904Y25827620D01*
X11781904Y26827620D01*
X12115238Y26827620D01*
X12210476Y26780000D01*
X12258095Y26732381D01*
X12305714Y26637143D01*
X12305714Y26541905D01*
X12258095Y26446667D01*
X12210476Y26399048D01*
X12115238Y26351429D01*
X11781904Y26351429D01*
X12734285Y26732381D02*
X12781904Y26780000D01*
X12877142Y26827620D01*
X13115238Y26827620D01*
X13210476Y26780000D01*
X13258095Y26732381D01*
X13305714Y26637143D01*
X13305714Y26541905D01*
X13258095Y26399048D01*
X12686666Y25827620D01*
X13305714Y25827620D01*
X12115238Y24191429D02*
X12258095Y24143810D01*
X12305714Y24096191D01*
X12353333Y24000953D01*
X12353333Y23858096D01*
X12305714Y23762858D01*
X12258095Y23715239D01*
X12162857Y23667620D01*
X11781904Y23667620D01*
X11781904Y24667620D01*
X12115238Y24667620D01*
X12210476Y24620000D01*
X12258095Y24572381D01*
X12305714Y24477143D01*
X12305714Y24381905D01*
X12258095Y24286667D01*
X12210476Y24239048D01*
X12115238Y24191429D01*
X11781904Y24191429D01*
X13305714Y23667620D02*
X12734285Y23667620D01*
X13020000Y23667620D02*
X13020000Y24667620D01*
X12924761Y24524762D01*
X12829523Y24429524D01*
X12734285Y24381905D01*
X12110238Y22151429D02*
X12253095Y22103810D01*
X12300714Y22056191D01*
X12348333Y21960953D01*
X12348333Y21818096D01*
X12300714Y21722858D01*
X12253095Y21675239D01*
X12157857Y21627620D01*
X11776904Y21627620D01*
X11776904Y22627620D01*
X12110238Y22627620D01*
X12205476Y22580000D01*
X12253095Y22532381D01*
X12300714Y22437143D01*
X12300714Y22341905D01*
X12253095Y22246667D01*
X12205476Y22199048D01*
X12110238Y22151429D01*
X11776904Y22151429D01*
X12967380Y22627620D02*
X13062619Y22627620D01*
X13157857Y22580000D01*
X13205476Y22532381D01*
X13253095Y22437143D01*
X13300714Y22246667D01*
X13300714Y22008572D01*
X13253095Y21818096D01*
X13205476Y21722858D01*
X13157857Y21675239D01*
X13062619Y21627620D01*
X12967380Y21627620D01*
X12872142Y21675239D01*
X12824523Y21722858D01*
X12776904Y21818096D01*
X12729285Y22008572D01*
X12729285Y22246667D01*
X12776904Y22437143D01*
X12824523Y22532381D01*
X12872142Y22580000D01*
X12967380Y22627620D01*
X8217619Y7587620D02*
X7884285Y8063810D01*
X7646190Y7587620D02*
X7646190Y8587620D01*
X8027142Y8587620D01*
X8122380Y8540000D01*
X8170000Y8492381D01*
X8217619Y8397143D01*
X8217619Y8254286D01*
X8170000Y8159048D01*
X8122380Y8111429D01*
X8027142Y8063810D01*
X7646190Y8063810D01*
X8646190Y8111429D02*
X8979523Y8111429D01*
X9122380Y7587620D02*
X8646190Y7587620D01*
X8646190Y8587620D01*
X9122380Y8587620D01*
X9503333Y7635239D02*
X9646190Y7587620D01*
X9884285Y7587620D01*
X9979523Y7635239D01*
X10027142Y7682858D01*
X10074761Y7778096D01*
X10074761Y7873334D01*
X10027142Y7968572D01*
X9979523Y8016191D01*
X9884285Y8063810D01*
X9693809Y8111429D01*
X9598571Y8159048D01*
X9550952Y8206667D01*
X9503333Y8301905D01*
X9503333Y8397143D01*
X9550952Y8492381D01*
X9598571Y8540000D01*
X9693809Y8587620D01*
X9931904Y8587620D01*
X10074761Y8540000D01*
X10503333Y8111429D02*
X10836666Y8111429D01*
X10979523Y7587620D02*
X10503333Y7587620D01*
X10503333Y8587620D01*
X10979523Y8587620D01*
X11265238Y8587620D02*
X11836666Y8587620D01*
X11550952Y7587620D02*
X11550952Y8587620D01*
M02*
